<?xml version="1.0" encoding="UTF-8"?>
<svg width="100" height="100" version="1.1" viewBox="0 0 100 100" xmlns="http://www.w3.org/2000/svg">
 <path d="m20.089 2.44e-5h59.821c11.13 0 20.089 8.9599 20.089 20.089v59.821c0 11.13-8.9599 20.089-20.089 20.089h-59.821c-11.13 0-20.089-8.9598-20.089-20.089v-59.821c0-11.13 8.9599-20.089 20.089-20.089z" fill="#e91e63"/>
 <path d="m53.45 17.477a3.6048 3.6048 0 0 1-2.549 4.415 3.6048 3.6048 0 0 1-4.415-2.549 3.6048 3.6048 0 0 1 2.549-4.415 3.6048 3.6048 0 0 1 4.415 2.549zm-0.70327-14.01c-7.3-0.33044-13.978 3.9033-18.487 9.3507-8.3032 6.5551-16.606 13.11-24.909 19.665 4.8543 8.4595 9.7087 16.919 14.563 25.378 1.4323-5.367 2.8646-10.734 4.2969-16.101 6.7505-2.299 13.501-4.598 20.251-6.897-3.6299-6.323-7.2591-12.646-10.889-18.97 3.4233-4.2615 8.2783-8.2477 14.088-7.8605 6.0791 0.39856 12.159 4.8181 13.645 10.84 0.9886 5.8184-1.6217 11.825-6.3824 15.255-8.6966 6.8142-19.923 10.955-25.888 20.802-5.369 7.8107-7.4461 18.781-2.2524 27.209 5.7533 9.9472 18.733 13.41 29.396 10.557 5.0175-1.1081 9.9094-3.3507 13.101-7.5148 3.7476-4.3711 6.7632-9.3244 9.3983-14.429-3.1962 4.8444-6.687 9.6454-10.981 13.576-1.3504-1.1645 3.0788-5.5018 4.1097-7.6849 3.3402-5.0419 7.1412-9.8159 10.003-15.152-1.8528 1.8838-4.4042 5.9314-6.7246 8.5301-4.2069 5.058-8.7753 10.291-15.232 12.414-6.4104 3.1004-14.682 3.7613-20.485-1.008-6.3263-4.6151-7.5121-13.675-4.2497-20.457 2.8526-6.8779 8.4733-12.131 14.831-15.791 7.1212-4.4984 15.387-9.6515 17.114-18.587 1.3834-6.1723-0.56041-12.844-5.1375-17.237-3.457-3.5239-8.2808-5.7058-13.179-5.8887zm-19.238 17.896c1.9165 3.3407 3.833 6.6813 5.7495 10.022-5.4118 1.8433-10.824 3.6865-16.235 5.5298-0.41504 1.5584-0.83008 3.1169-1.2451 4.6753-1.4404-2.5146-2.8809-5.0293-4.3213-7.5439 5.3507-4.2277 10.701-8.4554 16.052-12.683z" fill="#fff"/>
</svg>
